<svg width="99" height="66" viewBox="0 0 99 66" fill="none" xmlns="http://www.w3.org/2000/svg">
<path d="M69.5 3C85.7924 3 99 16.2076 99 32.5V32.5C99 48.7924 85.7924 62 69.5 62L-2.57897e-06 62L-2.04683e-06 49.8261C-9.16399e-07 23.9648 20.9648 3 46.8261 3L69.5 3Z" fill="#C62828"/>
<path d="M68.84 55.875C69.2088 55.875 69.5075 56.1737 69.5075 56.5425C69.5075 56.9112 69.2088 57.21 68.84 57.21H29.527C29.1583 57.21 28.8595 56.9112 28.8595 56.5425C28.8595 56.1737 29.1583 55.875 29.527 55.875H68.84ZM68.84 58.3443H29.527C29.1583 58.3443 28.8595 58.6431 28.8595 59.0118C28.8595 59.3806 29.1583 59.6793 29.527 59.6793H68.84C69.2088 59.6793 69.5075 59.3806 69.5075 59.0118C69.5075 58.6431 69.2086 58.3443 68.84 58.3443ZM76 0.667508V53.66V61.6597V64.7094C76 65.0782 75.7012 65.3769 75.3325 65.3769H30.2912C26.9278 65.3769 23 63.3558 23 57.6599V6.028C22.9999 2.70421 25.7041 0 29.028 0H75.3326C75.7012 0 76 0.298777 76 0.667508ZM74.665 54.3275H69.0301H30.5266C28.689 54.3275 27.1942 55.8224 27.1942 57.6599C27.1942 59.4974 28.689 60.9922 30.5266 60.9922H74.665V54.3275ZM74.665 64.0419V62.3272H30.5266C27.953 62.3272 25.8592 60.2334 25.8592 57.6599C25.8592 55.0864 27.953 52.9925 30.5266 52.9925H69.0301H74.665V51.6046H29.399C28.6546 51.6046 27.7715 51.94 26.912 52.5488C26.7948 52.6317 26.6601 52.6716 26.5266 52.6716C26.3175 52.6717 26.1115 52.5737 25.9814 52.39C25.7683 52.0891 25.8394 51.6726 26.1401 51.4594C27.2231 50.6922 28.3804 50.2696 29.3989 50.2696H29.6235V48.2158C29.6235 47.8471 29.9223 47.5483 30.2911 47.5483C30.6598 47.5483 30.9586 47.8471 30.9586 48.2158V50.2696H74.665V1.33502H30.9587V43.0896C30.9587 43.4584 30.6599 43.7572 30.2912 43.7572C29.9225 43.7572 29.6237 43.4584 29.6237 43.0896V1.33502H29.028C26.4402 1.33502 24.335 3.44034 24.335 6.028V57.6599C24.335 63.7342 29.2966 64.0419 30.2912 64.0419H74.665ZM40.6133 21.4298V14.5944C40.6133 14.2257 40.912 13.9269 41.2808 13.9269H48.8324V7.75951C48.8324 7.39078 49.1312 7.09201 49.4999 7.09201H56.3352C56.7039 7.09201 57.0027 7.39078 57.0027 7.75951V13.9268H64.5544C64.9231 13.9268 65.2219 14.2255 65.2219 14.5943V21.4297C65.2219 21.7984 64.9231 22.0972 64.5544 22.0972H57.0027V44.2151C57.0027 44.5838 56.7039 44.8826 56.3352 44.8826H49.4999C49.1312 44.8826 48.8324 44.5838 48.8324 44.2151V22.0973H41.2808C40.912 22.0973 40.6133 21.7984 40.6133 21.4298ZM41.9483 20.7623H49.4999C49.8687 20.7623 50.1674 21.0611 50.1674 21.4298V43.5477H55.6677V21.4298C55.6677 21.0611 55.9665 20.7623 56.3352 20.7623H63.8869V15.2619H56.3352C55.9665 15.2619 55.6677 14.9631 55.6677 14.5944V8.42702H50.1674V14.5943C50.1674 14.963 49.8687 15.2618 49.4999 15.2618H41.9483V20.7623Z" fill="black"/>
</svg>
